<svg width="57" height="57" viewBox="0 0 57 57" fill="none" xmlns="http://www.w3.org/2000/svg"><path fill="#3B3BE9" d="M0 0H56.396V56.396H0z"/><path d="M9.68131 37.5355V19.335H14.68V37.5355H9.68131ZM31.9931 23.6929H26.7637V37.5355H21.765V23.6929H16.5099V19.335H31.9931V23.6929ZM44.8366 25.2822C44.8366 25.2822 44.6914 25.1968 44.4009 25.0259C44.1103 24.855 43.7258 24.667 43.2473 24.4619C42.7688 24.2398 42.2476 24.0432 41.6836 23.8723C41.1196 23.7014 40.5642 23.616 40.0174 23.616C39.5901 23.616 39.2398 23.6843 38.9663 23.8211C38.6929 23.9578 38.5562 24.1885 38.5562 24.5132C38.5562 24.9917 38.8553 25.3335 39.4534 25.5386C40.0686 25.7266 40.8975 25.9914 41.9399 26.3332C43.0679 26.675 44.042 27.0681 44.8623 27.5124C45.6826 27.9568 46.3149 28.5293 46.7592 29.2299C47.2036 29.9135 47.4257 30.8278 47.4257 31.9728C47.4257 33.0666 47.2292 33.9894 46.8361 34.7414C46.4431 35.4762 45.9133 36.0658 45.2468 36.5101C44.5803 36.9545 43.8369 37.2792 43.0166 37.4843C42.1963 37.6722 41.3589 37.7662 40.5044 37.7662C39.6328 37.7662 38.7185 37.6808 37.7615 37.5099C36.8216 37.3219 35.9073 37.0741 35.0186 36.7665C34.13 36.4418 33.3182 36.0658 32.5833 35.6386L34.7366 31.2551C34.7366 31.2551 34.9075 31.3576 35.2493 31.5627C35.5911 31.7678 36.044 31.9985 36.608 32.2548C37.1719 32.5112 37.7957 32.7419 38.4793 32.9469C39.18 33.152 39.8806 33.2546 40.5813 33.2546C41.1282 33.2546 41.5042 33.1862 41.7092 33.0495C41.9314 32.8957 42.0425 32.6991 42.0425 32.4599C42.0425 32.101 41.8545 31.8276 41.4785 31.6396C41.1025 31.4345 40.6069 31.2465 39.9917 31.0756C39.3936 30.8876 38.7271 30.674 37.9922 30.4348C36.3858 29.8879 35.2152 29.2385 34.4803 28.4865C33.7454 27.7175 33.378 26.6665 33.378 25.3335C33.378 23.9834 33.6942 22.8555 34.3265 21.9497C34.9588 21.044 35.7877 20.3604 36.813 19.899C37.8555 19.4205 38.9749 19.1812 40.1712 19.1812C41.0598 19.1812 41.9143 19.2923 42.7346 19.5145C43.572 19.7195 44.3496 19.9759 45.0674 20.2835C45.8022 20.5911 46.4431 20.8816 46.9899 21.1551L44.8366 25.2822Z" fill="#fff"/></svg>